<svg width="10" height="10" viewBox="0 0 10 10" fill="none" xmlns="http://www.w3.org/2000/svg">
<path d="M7.33853 6.45471C7.83062 5.78272 8.12496 4.95731 8.12496 4.06249C8.12496 1.82251 6.30245 0 4.06247 0C1.82249 0 0 1.82251 0 4.06249C0 6.30247 1.82251 8.12498 4.06249 8.12498C4.95731 8.12498 5.7828 7.8306 6.45479 7.33851L9.11622 9.99994L10 9.11616C10 9.11614 7.33853 6.45471 7.33853 6.45471ZM4.06249 6.87498C2.51159 6.87498 1.25 5.61339 1.25 4.06249C1.25 2.51159 2.51159 1.25 4.06249 1.25C5.61339 1.25 6.87498 2.51159 6.87498 4.06249C6.87498 5.61339 5.61337 6.87498 4.06249 6.87498Z" fill="#1F4B99"/>
</svg>
