<svg width="10" height="10" viewBox="0 0 10 10" fill="none" xmlns="http://www.w3.org/2000/svg">
<path d="M5.91616 5.00815L9.80996 1.11423C10.0634 0.860948 10.0634 0.451424 9.80996 0.198141C9.55667 -0.0551421 9.14715 -0.0551421 8.89387 0.198141L4.99995 4.09206L1.10614 0.198141C0.852741 -0.0551421 0.443335 -0.0551421 0.190052 0.198141C-0.0633505 0.451424 -0.0633505 0.860948 0.190052 1.11423L4.08385 5.00815L0.190052 8.90207C-0.0633505 9.15535 -0.0633505 9.56488 0.190052 9.81816C0.316278 9.9445 0.482247 10.008 0.648097 10.008C0.813947 10.008 0.979798 9.9445 1.10614 9.81816L4.99995 5.92424L8.89387 9.81816C9.02021 9.9445 9.18606 10.008 9.35191 10.008C9.51776 10.008 9.68361 9.9445 9.80996 9.81816C10.0634 9.56488 10.0634 9.15535 9.80996 8.90207L5.91616 5.00815Z" fill="#1F4B99"/>
</svg>
