<svg width="35" height="25" viewBox="0 0 35 25" fill="none" xmlns="http://www.w3.org/2000/svg">
<path d="M31.9238 0.195312H3.07617C1.37655 0.195312 0 1.58041 0 3.27148V21.7285C0 23.4296 1.38667 24.8047 3.07617 24.8047H31.9238C33.6092 24.8047 35 23.4354 35 21.7285V3.27148C35 1.58342 33.6289 0.195312 31.9238 0.195312ZM31.493 2.24609C30.8645 2.87124 20.0486 13.6302 19.6752 14.0017C19.0941 14.5827 18.3217 14.9026 17.5 14.9026C16.6783 14.9026 15.9059 14.5826 15.3229 13.9997C15.0717 13.7499 4.37521 3.10975 3.50697 2.24609H31.493ZM2.05078 21.3111V3.69019L10.9128 12.5055L2.05078 21.3111ZM3.50827 22.7539L12.3668 13.9517L13.8747 15.4518C14.8431 16.4201 16.1306 16.9534 17.5 16.9534C18.8694 16.9534 20.1569 16.4201 21.1234 15.4537L22.6332 13.9517L31.4917 22.7539H3.50827ZM32.9492 21.3111L24.0872 12.5055L32.9492 3.69019V21.3111Z" fill="#92959A"/>
</svg>
