<svg width="128" height="66" viewBox="0 0 128 66" fill="none" xmlns="http://www.w3.org/2000/svg">
<path d="M125.766 65.3899C125.814 65.3803 125.861 65.3673 125.908 65.3551C125.949 65.3447 125.99 65.3362 126.029 65.324C126.075 65.31 126.121 65.2926 126.166 65.2763C126.206 65.2618 126.246 65.2489 126.286 65.2322C126.328 65.2145 126.369 65.1937 126.411 65.1741C126.451 65.1549 126.492 65.1371 126.532 65.1156C126.571 65.0945 126.609 65.0705 126.647 65.0475C126.687 65.0239 126.727 65.0016 126.765 64.9757C126.806 64.9483 126.844 64.918 126.884 64.8884C126.917 64.8636 126.951 64.8403 126.984 64.8136C127.044 64.7644 127.101 64.7118 127.156 64.6578C127.166 64.6482 127.177 64.64 127.187 64.6301C127.198 64.6197 127.206 64.6082 127.216 64.5975C127.27 64.5427 127.322 64.4864 127.37 64.4272C127.399 64.3924 127.424 64.3562 127.45 64.3203C127.478 64.2832 127.507 64.2473 127.532 64.2089C127.56 64.1678 127.584 64.1252 127.609 64.083C127.63 64.0475 127.652 64.0127 127.672 63.9761C127.695 63.9335 127.714 63.8894 127.735 63.8461C127.753 63.8076 127.772 63.7695 127.789 63.7299C127.806 63.6874 127.82 63.6441 127.836 63.6007C127.851 63.5586 127.867 63.5167 127.88 63.4738C127.894 63.4301 127.903 63.3857 127.914 63.3413C127.925 63.2976 127.938 63.2547 127.946 63.2106C127.957 63.1585 127.963 63.1059 127.97 63.0533C127.976 63.0163 127.983 62.9797 127.986 62.9423C127.996 62.8501 128 62.758 128 62.6655V3.33229C128 1.79889 126.758 0.556396 125.224 0.556396H37.7837C37.7592 0.556396 37.7356 0.559355 37.7111 0.560096C37.6582 0.561576 37.6056 0.563798 37.5531 0.568239C37.5113 0.571571 37.4698 0.576383 37.4284 0.581935C37.381 0.587857 37.334 0.594889 37.287 0.603401C37.2429 0.611174 37.1993 0.620426 37.1559 0.630419C37.1119 0.640783 37.0679 0.651887 37.0242 0.664471C36.9809 0.676685 36.9383 0.690008 36.8961 0.704072C36.8528 0.718877 36.8095 0.734424 36.767 0.75145C36.7266 0.767365 36.687 0.783648 36.6478 0.801414C36.6041 0.82103 36.5608 0.842129 36.5179 0.863966C36.4812 0.882843 36.4453 0.902088 36.4098 0.922444C36.3669 0.946872 36.3247 0.972781 36.2828 0.999429C36.2484 1.02164 36.2147 1.04458 36.1814 1.0679C36.1422 1.09566 36.1033 1.12453 36.0652 1.15488C36.0304 1.18264 35.9964 1.21114 35.9627 1.24038C35.9294 1.26962 35.8964 1.29886 35.8642 1.32995C35.8276 1.36511 35.7924 1.40175 35.7576 1.43876C35.7402 1.45727 35.7217 1.47355 35.7051 1.49243C35.6951 1.50353 35.6873 1.51575 35.6777 1.52685C35.6429 1.56719 35.6103 1.60939 35.5778 1.65195C35.5541 1.68304 35.5296 1.71413 35.5074 1.74596C35.4786 1.78741 35.4519 1.82998 35.4253 1.87291C35.4034 1.90807 35.3809 1.94286 35.3609 1.97876C35.3375 2.02022 35.3172 2.06278 35.2961 2.10535C35.2768 2.14421 35.2569 2.18307 35.2395 2.22268C35.2213 2.2645 35.2054 2.3078 35.1895 2.35037C35.1736 2.39219 35.1573 2.43364 35.1436 2.47584C35.1299 2.5184 35.1188 2.5617 35.107 2.60501C35.0951 2.64942 35.0825 2.69347 35.0725 2.73825C35.0633 2.78007 35.057 2.82264 35.0496 2.86483C35.0415 2.91295 35.0333 2.96106 35.0274 3.00918C35.0226 3.04915 35.0204 3.08986 35.0174 3.13058C35.0137 3.18239 35.0104 3.23421 35.0096 3.2864C35.0093 3.30157 35.0074 3.31638 35.0074 3.33155V20.4503C35.0074 21.9837 36.2499 23.2262 37.7833 23.2262C39.3167 23.2262 40.5592 21.9837 40.5592 20.4503V9.49664L65.2392 31.3474C65.1104 31.4381 64.9864 31.5384 64.8709 31.6535L40.5588 55.9655V37.7231C40.5588 36.1897 39.3163 34.9472 37.7829 34.9472C36.2495 34.9472 35.007 36.1897 35.007 37.7231V41.1149H20.6649C19.1315 41.1149 17.889 42.3574 17.889 43.8908C17.889 45.4242 19.1315 46.6667 20.6649 46.6667H35.007V62.6673C35.007 64.2007 36.2495 65.4432 37.7829 65.4432H125.224C125.315 65.4432 125.407 65.4384 125.498 65.4295C125.54 65.4254 125.581 65.4173 125.623 65.4114C125.671 65.4047 125.719 65.3992 125.766 65.3899ZM122.448 55.9659L98.1358 31.6539C98.1202 31.6383 98.1036 31.6254 98.0877 31.6106L116.365 16.1036C117.534 15.1117 117.678 13.3603 116.686 12.1911C115.695 11.0226 113.943 10.8783 112.773 11.8706L81.5422 38.3675L45.1061 6.10856H122.448V55.9659ZM68.7971 35.5801C68.9951 35.3821 69.1558 35.1615 69.2812 34.9268L79.6635 44.1188C80.1883 44.5833 80.8456 44.8164 81.5037 44.8164C82.1425 44.8164 82.781 44.5969 83.2999 44.1572L93.8805 35.1804C93.9767 35.321 94.0852 35.4554 94.2099 35.5801L118.522 59.8922H44.4851L68.7971 35.5801Z" fill="#1F4B99"/>
<path d="M2.7759 32.1706H49.6579C51.1913 32.1706 52.4338 30.9281 52.4338 29.3947C52.4338 27.8613 51.1913 26.6188 49.6579 26.6188H2.7759C1.24249 26.6188 0 27.8613 0 29.3947C0 30.9281 1.24249 32.1706 2.7759 32.1706Z" fill="#1F4B99"/>
<path d="M7.63372 16.8732H28.6843C30.2177 16.8732 31.4602 15.6307 31.4602 14.0973C31.4602 12.5639 30.2177 11.3214 28.6843 11.3214H7.63372C6.10031 11.3214 4.85782 12.5639 4.85782 14.0973C4.85782 15.6307 6.10031 16.8732 7.63372 16.8732Z" fill="#1F4B99"/>
<path d="M23.1325 52.8358H2.7759C1.24249 52.8358 0 54.0783 0 55.6117C0 57.1451 1.24249 58.3876 2.7759 58.3876H23.1325C24.6659 58.3876 25.9084 57.1451 25.9084 55.6117C25.9084 54.0783 24.6659 52.8358 23.1325 52.8358Z" fill="#1F4B99"/>
</svg>
