<?xml version="1.0" encoding="UTF-8"?>
<svg xmlns="http://www.w3.org/2000/svg" id="outline" viewBox="0 0 512 512" width="512" height="512"><path d="M56,352h72a7.99977,7.99977,0,0,0,8-8V296a7.99977,7.99977,0,0,0-8-8H56a7.99977,7.99977,0,0,0-8,8v48A7.99977,7.99977,0,0,0,56,352Zm8-48h56v32H64Z"/><rect x="152" y="296" width="32" height="16"/><rect x="152" y="328" width="40" height="16"/><path d="M64,416H176a24,24,0,0,0,0-48H64a24,24,0,0,0,0,48Zm64-24a8,8,0,1,1-8-8A8.00917,8.00917,0,0,1,128,392Zm14.6239-8h10.7522a23.94217,23.94217,0,0,0,0,16H142.6239a23.94217,23.94217,0,0,0,0-16ZM97.3761,400H86.6239a23.94217,23.94217,0,0,0,0-16H97.3761a23.94217,23.94217,0,0,0,0,16ZM184,392a8,8,0,1,1-8-8A8.00917,8.00917,0,0,1,184,392ZM64,384a8,8,0,1,1-8,8A8.00917,8.00917,0,0,1,64,384Z"/><rect x="48" y="432" width="16" height="32"/><rect x="80" y="432" width="16" height="32"/><rect x="112" y="432" width="16" height="32"/><rect x="144" y="432" width="16" height="32"/><rect x="176" y="432" width="16" height="32"/><path d="M16,32H76.68652l-56,56H16v16H128v64H96a24.0275,24.0275,0,0,0-24,24v64H24a7.99977,7.99977,0,0,0-8,8V488a7.99977,7.99977,0,0,0,8,8H216a7.99977,7.99977,0,0,0,8-8V384h19.71875L256,402.42188v59.15624L241.34375,483.5625A8,8,0,0,0,248,496h80a8,8,0,0,0,6.65625-12.4375L320,461.57812V402.42188L332.28125,384h47.4375L392,402.42188v59.15624L377.34375,483.5625A8,8,0,0,0,384,496h80a8,8,0,0,0,6.65625-12.4375L456,461.57812V402.42188l12.496-18.744A31.99747,31.99747,0,0,0,464,320H448V256a7.99977,7.99977,0,0,0-8-8H360a7.99977,7.99977,0,0,0-8,8v64H336V256a7.99977,7.99977,0,0,0-8-8H248a7.99977,7.99977,0,0,0-8,8v64H224V264a7.99977,7.99977,0,0,0-8-8H112V208h32a24.0275,24.0275,0,0,0,24-24V104h83.1936l5.33509,4.26807L264.01758,160.69A24.02326,24.02326,0,0,0,288,184h75.71875l-2.375,3.5625A7.996,7.996,0,0,0,360,192v32a7.99977,7.99977,0,0,0,8,8h16a8.00011,8.00011,0,0,0,7.58936-5.47021L397.76611,208h4.46778l6.17675,18.52979A8.00011,8.00011,0,0,0,416,232h16a7.99977,7.99977,0,0,0,8-8V192a7.996,7.996,0,0,0-1.34375-4.4375L423.509,164.84167a23.98658,23.98658,0,0,0-39.41394-22.79351l-62.35974-13.85773a7.99782,7.99782,0,0,0-5.19617.602l2.93213-20.52435L324.8064,104H496V88H435.31348l56-56H496V16H16ZM304,456h-8V424H280v32h-8V408h32Zm-41.05176,24,5.333-8h39.4375l5.333,8Zm44.77051-88h-39.4375l-5.33325-8h50.104ZM416,424v32h-8V408h32v48h-8V424Zm-11.71875-32-5.33325-8h50.104l-5.33325,8Zm-5.333,88,5.333-8h39.4375l5.333,8ZM368,264h24v16h16V264h24v56H368Zm-112,0h24v16h16V264h24v56H256Zm208,72a16,16,0,0,1,0,32H224V336ZM273.22388,112h29.55224l-3.8092,26.66315a23.91261,23.91261,0,0,0-21.934.00006Zm-6.41773-16L232,68.15479V56H344V68.15479L309.19385,96ZM408,41.96271V88H356.84741ZM360,63.63733V48a7.99977,7.99977,0,0,0-8-8h-8V32h51.15259ZM328,40H264V32h64ZM226.26379,40H224a7.99977,7.99977,0,0,0-8,8v1.23712L184,78.03723V32h51.15259ZM168,88H116.84741L168,41.96271Zm-64-9.96271V32h51.15259ZM88,43.31348V88H43.31348ZM208,480H32V272H208ZM88,256V224h8v32Zm16-64a7.99977,7.99977,0,0,0-8,8v8H88V192a8.00917,8.00917,0,0,1,8-8h16v8Zm40,0H128v-8h8a7.99977,7.99977,0,0,0,8-8v-8h8v16A8.00917,8.00917,0,0,1,144,192Zm8-40h-8V104h8Zm44.84741-64L216,70.76257V72a7.99951,7.99951,0,0,0,3.00244,6.24707L231.1936,88ZM280,160a8,8,0,1,1,8,8A8.00917,8.00917,0,0,1,280,160Zm144,56h-2.23389l-6.17675-18.52979A8.00011,8.00011,0,0,0,408,192H392a8.00011,8.00011,0,0,0-7.58936,5.47021L378.23389,216H376V194.42236l9.97583-14.96417a23.92277,23.92277,0,0,0,28.04834,0L424,194.42236Zm-24-64a8,8,0,1,1-8,8A8.00917,8.00917,0,0,1,400,152Zm-78.96289-7.57422,55.19641,12.26575a23.88665,23.88665,0,0,0,.25745,8.15014L374.3855,168H310.6239a23.927,23.927,0,0,0-.80017-17.96771ZM424,76.68652V32h44.68652Z"/></svg>
