<svg id="Capa_1" enable-background="new 0 0 512 512" height="512" viewBox="0 0 512 512" width="512" xmlns="http://www.w3.org/2000/svg"><g><path d="m491.893 250.205v-74.842c0-18.805-9.431-35.439-23.804-45.451l-115.276-115.265c-19.496-19.494-51.215-19.495-70.711 0l-4.642 4.642-4.642-4.642c-9.444-9.443-22-14.644-35.355-14.644-13.356 0-25.912 5.201-35.355 14.644l-105.35 105.35h-41.392c-30.529 0-55.366 24.837-55.366 55.366v281.268c0 30.529 24.837 55.366 55.366 55.366h381.16c30.529 0 55.366-24.837 55.366-55.366v-74.842c11.858-5.486 20.108-17.489 20.108-31.389v-68.805c0-13.901-8.25-25.903-20.107-31.39zm-153.221-221.416 91.216 91.208h-42.435l-53.99-53.99c-8.839 8.839-23.17 8.839-32.009 0l-53.99 53.99h-42.426l91.208-91.208c11.696-11.697 30.729-11.696 42.426 0zm-122.421 0c5.666-5.666 13.199-8.786 21.213-8.786 8.013 0 15.547 3.121 21.213 8.786l4.642 4.642-86.566 86.566h-51.709zm220.275 463.208h-381.16c-19.501 0-35.366-15.865-35.366-35.366v-281.268c0-19.5 15.865-35.366 35.366-35.366h381.16c19.501 0 35.366 15.865 35.366 35.366v71.659h-163.547c-38.033 0-68.976 30.942-68.976 68.976s30.942 68.976 68.976 68.976h163.548v71.658c0 19.5-15.866 35.365-35.367 35.365zm55.474-141.597c0 8.036-6.537 14.573-14.573 14.573h-169.082c-27.005 0-48.976-21.971-48.976-48.976s21.971-48.975 48.976-48.975h169.082c8.036 0 14.573 6.537 14.573 14.573z"/><circle cx="308.25" cy="315.997" r="20.459"/></g></svg>